<svg xmlns="http://www.w3.org/2000/svg" width="17.376" height="21.312"><path fill-rule="evenodd" fill="#717171" d="M11.531.1H1.498C.684.1.023.748.023 1.544v10.257c0 .555.341 1.047.869 1.252l7.312 2.838c.162.064.333.095.508.095h2.819c.814 0 1.475-.647 1.475-1.443V1.544C13.006.748 12.345.1 11.531.1zM1.371 12.204l1.015-1.049a.5.5 0 01.696-.018l3.249 2.992-4.96-1.925zm10.652 2.339a.487.487 0 01-.492.481H8.738l-4.98-4.587a1.5 1.5 0 00-2.086.056l-.666.688V1.544c0-.266.221-.481.492-.481h10.033c.271 0 .492.215.492.481v12.999z"/></svg>6.331,14.129 L1.371,12.204 ZM12.023,14.543 C12.023,14.808 11.802,15.024 11.531,15.024 L8.738,15.024 L3.758,10.437 C3.167,9.890 2.231,9.915 1.672,10.493 L1.006,11.181 L1.006,1.544 C1.006,1.278 1.227,1.063 1.498,1.063 L11.531,1.063 C11.802,1.063 12.023,1.278 12.023,1.544 L12.023,14.543 Z"/>
</svg>